<svg width="70" height="53" viewBox="0 0 70 53" fill="none" xmlns="http://www.w3.org/2000/svg">
<path d="M11.5 28.1667H9.3174C4.99997 28.1667 1.5 24.6667 1.5 20.3493V9.31739C1.5 4.99996 4.99997 1.5 9.3174 1.5H34.258C36.4167 1.5 38.1667 3.24998 38.1667 5.4087V24.258C38.1667 26.4167 36.4167 28.1667 34.258 28.1667H28.1667M11.5 28.1667L9.44137 42.5771C8.76859 47.2865 12.4229 51.5 17.1802 51.5H18.0533C21.9437 51.5 25.242 48.6394 25.7922 44.7881L28.1667 28.1667M11.5 28.1667H28.1667M51.5 14.8333C51.5 20.3562 47.0228 24.8333 41.5 24.8333H38.1667M51.5 14.8333C51.5 9.31049 47.0228 4.83333 41.5 4.83333H38.1667M51.5 14.8333H68.1667" stroke="#038FE1" stroke-width="3" stroke-linecap="round" stroke-linejoin="round"/>
</svg>
