<svg width="63" height="50" viewBox="0 0 63 50" fill="none" xmlns="http://www.w3.org/2000/svg">
<path d="M58.7302 18.8926C60.5079 22.7256 61.5 26.9969 61.5 31.5C61.5 36.395 60.3277 41.0161 58.2484 45.098C57.2387 47.0803 55.1129 48.1667 52.8883 48.1667H10.1117C7.88709 48.1667 5.76129 47.0803 4.75158 45.098C2.67235 41.0161 1.5 36.395 1.5 31.5C1.5 14.9315 14.9315 1.5 31.5 1.5C35.9104 1.5 40.0985 2.45171 43.8701 4.16096M33.857 29.1434C32.5553 27.8416 30.4447 27.8416 29.143 29.1434C27.8412 30.4451 27.8412 32.5557 29.143 33.8574C30.4447 35.1592 32.5553 35.1592 33.857 33.8574C35.1588 32.5557 35.1588 30.4451 33.857 29.1434ZM33.857 29.1434L55.0702 7.93017" stroke="#038FE1" stroke-width="3" stroke-linecap="round" stroke-linejoin="round"/>
</svg>
