<svg width="65" height="50" viewBox="0 0 65 50" fill="none" xmlns="http://www.w3.org/2000/svg">
<path d="M52.4916 48.3992H57.4986C61.1982 48.3992 64.4215 45.3042 63.2462 41.7962C61.455 36.4501 57.0483 33.2171 49.3015 32.0972M39.0771 21.1499C40.0517 21.458 41.168 21.6038 42.4262 21.6038C48.0085 21.6038 50.7997 18.7328 50.7997 11.5555C50.7997 4.37818 48.0085 1.50724 42.4262 1.50724C41.168 1.50724 40.0517 1.65306 39.0771 1.96114M22.3296 31.6521C33.7691 31.6521 40.1595 34.6728 42.739 40.7144C44.4424 44.7042 40.584 48.3992 36.2457 48.3992H8.41348C4.0752 48.3992 0.216757 44.7042 1.92024 40.7144C4.49971 34.6728 10.8902 31.6521 22.3296 31.6521ZM22.3296 21.6038C27.912 21.6038 30.7032 18.7328 30.7032 11.5555C30.7032 4.37818 27.912 1.50724 22.3296 1.50724C16.7472 1.50724 13.956 4.37818 13.956 11.5555C13.956 18.7328 16.7472 21.6038 22.3296 21.6038Z" stroke="#038FE1" stroke-width="3" stroke-linecap="round" stroke-linejoin="round"/>
</svg>
