<svg width="63" height="57" viewBox="0 0 63 57" fill="none" xmlns="http://www.w3.org/2000/svg">
<path d="M1.5 8.16667V43.1072C1.5 49.5834 6.74995 54.8333 13.2261 54.8333H57.5913C59.75 54.8333 61.5 53.0834 61.5 50.9246V41.5M54.8333 14.8333H8.16667C4.48477 14.8333 1.5 11.8486 1.5 8.16667V8.16667C1.5 4.48477 4.48477 1.5 8.16667 1.5H50.9246C53.0834 1.5 54.8333 3.24998 54.8333 5.4087V14.8333ZM54.8333 14.8333H57.5913C59.75 14.8333 61.5 16.5833 61.5 18.742V28.1667M61.5 28.1667H51.5C47.8181 28.1667 44.8333 31.1514 44.8333 34.8333V34.8333C44.8333 38.5152 47.8181 41.5 51.5 41.5H61.5M61.5 28.1667V41.5" stroke="#038FE1" stroke-width="3" stroke-linecap="round" stroke-linejoin="round"/>
</svg>
